<svg width="32" height="32" viewBox="0 0 32 32" fill="none" xmlns="http://www.w3.org/2000/svg">
<path fill-rule="evenodd" clip-rule="evenodd" d="M16 31.025C7.71433 31.025 1 24.3023 1 16.0117C1 7.72118 7.71433 1 16 1C24.2841 1 31 7.72118 31 16.0117C31 24.3023 24.2841 31.025 16 31.025Z" fill="#F0F0F0" stroke="#F0F0F0"/>
<g clip-path="url(#clip0_660_3359)">
<path d="M23.6472 11.9527L23.6672 12.0833C23.4738 11.3973 22.9518 10.868 22.2885 10.6753L22.2745 10.672C21.0272 10.3333 16.0078 10.3333 16.0078 10.3333C16.0078 10.3333 11.0012 10.3267 9.74117 10.672C9.06517 10.868 8.54251 11.3973 8.35251 12.0693L8.34917 12.0833C7.88317 14.5173 7.87984 17.442 8.36984 20.048L8.34917 19.916C8.54251 20.602 9.06451 21.1313 9.72784 21.324L9.74184 21.3273C10.9878 21.6667 16.0085 21.6667 16.0085 21.6667C16.0085 21.6667 21.0145 21.6667 22.2752 21.3273C22.9518 21.1313 23.4745 20.602 23.6645 19.93L23.6678 19.916C23.8798 18.784 24.0012 17.4813 24.0012 16.1507C24.0012 16.102 24.0012 16.0527 24.0005 16.0033C24.0012 15.958 24.0012 15.904 24.0012 15.85C24.0012 14.5187 23.8798 13.216 23.6472 11.9527V11.9527ZM14.4065 18.434V13.572L18.5838 16.0067L14.4065 18.434Z" fill="#C4C4C4"/>
</g>
<defs>
<clipPath id="clip0_660_3359">
<rect width="16" height="16" fill="white" transform="translate(8 8)"/>
</clipPath>
</defs>
</svg>
