<svg width="16" height="16" viewBox="0 0 16 16" fill="none" xmlns="http://www.w3.org/2000/svg">
<g clip-path="url(#clip0_65_382)">
<path d="M15.1784 0.822563C14.0816 -0.274188 12.2971 -0.274188 11.2004 0.822563L2.06936 9.95356C2.05718 9.9655 2.04561 9.97822 2.03471 9.99156C1.95983 10.083 2.07768 9.83397 0.0720229 14.7049C-0.0725706 15.0561 0.00752302 15.4564 0.276023 15.725C0.544741 15.9937 0.945209 16.0734 1.29605 15.929C6.12639 13.94 5.9482 14.033 6.04742 13.9316L15.1784 4.80056C16.2751 3.70384 16.2751 1.91931 15.1784 0.822563ZM0.93899 15.062L1.40308 13.9348L2.06611 14.5979L0.93899 15.062ZM3.00536 14.2111L1.78983 12.9956L2.56333 11.1171L4.88386 13.4376L3.00536 14.2111ZM5.71264 12.9404L3.06058 10.2883L9.21132 4.13756L11.8633 6.78959L5.71264 12.9404ZM12.5264 6.12659L9.87435 3.47456L10.5374 2.81153L13.1894 5.46359L12.5264 6.12659ZM14.5154 4.13763L13.8524 4.80062L11.2004 2.14859L11.8634 1.48559C12.5946 0.754406 13.7843 0.754438 14.5154 1.48559C15.2465 2.21675 15.2465 3.40644 14.5154 4.13763Z" fill="black"/>
</g>
<defs>
<clipPath id="clip0_65_382">
<rect width="16" height="16" fill="white"/>
</clipPath>
</defs>
</svg>
