<svg width="20" height="20" viewBox="0 0 20 20" fill="none" xmlns="http://www.w3.org/2000/svg">
<path d="M18.8994 17.9495L18.8994 17.9494L14.3206 13.4438C15.5151 12.113 16.2466 10.3688 16.2466 8.45261C16.246 4.27965 12.8093 0.9 8.57303 0.9C4.33671 0.9 0.9 4.27965 0.9 8.45261C0.9 12.6256 4.33671 16.0052 8.57303 16.0052C10.3716 16.0052 12.0241 15.394 13.3324 14.3741L17.9348 18.9033C18.2011 19.1656 18.6326 19.1656 18.8989 18.9033C19.1665 18.6402 19.1665 18.2126 18.8994 17.9495ZM8.57303 14.6586C5.0878 14.6586 2.26522 11.8786 2.26522 8.45261C2.26522 5.02664 5.0878 2.24663 8.57303 2.24663C12.0583 2.24663 14.8808 5.02664 14.8808 8.45261C14.8808 11.8786 12.0583 14.6586 8.57303 14.6586Z" fill="white" stroke="black" stroke-width="0.2"/>
</svg>
