<svg width="50" height="50" viewBox="0 0 50 50" fill="none" xmlns="http://www.w3.org/2000/svg">
<g filter="url(#filter0_d_660_3345)">
<circle cx="25" cy="21" r="15" fill="#F0F0F0"/>
<circle cx="25" cy="21" r="14.5" stroke="#F0F0F0"/>
</g>
<path fill-rule="evenodd" clip-rule="evenodd" d="M32.4797 16.3193C32.2975 15.8501 32.0547 15.4527 31.6572 15.0553C31.2598 14.6578 30.8623 14.4149 30.3931 14.2328C29.9405 14.0561 29.4161 13.9347 28.6599 13.9016L28.647 13.901C27.8953 13.8683 27.6443 13.8574 25.7122 13.8574C23.7692 13.8574 23.5263 13.8629 22.7645 13.9016C22.0028 13.9347 21.4839 14.0561 21.0312 14.2328C20.562 14.4149 20.1646 14.6578 19.7672 15.0553C19.3697 15.4527 19.1269 15.8501 18.9447 16.3193C18.7681 16.772 18.6466 17.2964 18.6135 18.0526L18.6129 18.0654C18.5803 18.8172 18.5693 19.0682 18.5693 21.0003C18.5693 22.9433 18.5749 23.1862 18.6135 23.9479C18.6466 24.7097 18.7681 25.2286 18.9447 25.6812C19.1269 26.1504 19.3697 26.5479 19.7672 26.9453C20.1646 27.3427 20.562 27.5856 21.0312 27.7678C21.4839 27.9444 22.0083 28.0659 22.7645 28.099L22.7774 28.0995C23.5291 28.1322 23.7801 28.1431 25.7122 28.1431C27.6552 28.1431 27.8981 28.1376 28.6599 28.099C29.4216 28.0659 29.9405 27.9444 30.3931 27.7678C30.8623 27.5856 31.2598 27.3427 31.6572 26.9453C32.0547 26.5479 32.2975 26.1504 32.4797 25.6812C32.6563 25.2286 32.7778 24.7042 32.8109 23.9479L32.8114 23.9351C32.8441 23.1834 32.8551 22.9324 32.8551 21.0003C32.8551 19.0572 32.8495 18.8144 32.8109 18.0526C32.7778 17.2909 32.6563 16.772 32.4797 16.3193ZM31.0294 23.6379C30.9991 24.2735 30.8932 24.6216 30.8024 24.8486C30.6864 25.1513 30.5401 25.3732 30.3131 25.6002C30.0861 25.8272 29.8692 25.9684 29.5615 26.0895C29.3294 26.1803 28.9864 26.2862 28.3508 26.3165L28.318 26.3179C27.6529 26.3471 27.43 26.3569 25.7126 26.3569C23.9673 26.3569 23.7604 26.3518 23.0744 26.3165C22.4388 26.2862 22.0907 26.1803 21.8637 26.0895C21.5611 25.9735 21.3391 25.8272 21.1121 25.6002C20.8851 25.3732 20.7439 25.1563 20.6228 24.8486C20.532 24.6165 20.4261 24.2735 20.3958 23.6379L20.3946 23.6106C20.3653 22.9411 20.3555 22.7169 20.3555 20.9997C20.3555 19.2594 20.3605 19.0475 20.3958 18.3615C20.4261 17.7259 20.532 17.3778 20.6228 17.1509C20.7388 16.8482 20.8851 16.6262 21.1121 16.3992C21.3391 16.1722 21.556 16.031 21.8637 15.9099C22.0958 15.8191 22.4388 15.7132 23.0744 15.6829L23.1017 15.6817C23.7712 15.6524 23.9954 15.6426 25.7126 15.6426C27.4529 15.6426 27.6648 15.6476 28.3508 15.6829C28.9864 15.7132 29.3345 15.8191 29.5615 15.9099C29.8641 16.026 30.0861 16.1722 30.3131 16.3992C30.5401 16.6262 30.6813 16.8431 30.8024 17.1509C30.8932 17.3829 30.9991 17.7259 31.0294 18.3615L31.0306 18.3888C31.0599 19.0584 31.0698 19.2825 31.0698 20.9997C31.0698 22.7234 31.0599 22.9477 31.0303 23.6184L31.0294 23.6379ZM30.1754 17.429C30.1754 17.9221 29.7756 18.3218 29.2825 18.3218C28.7894 18.3218 28.3896 17.9221 28.3896 17.429C28.3896 16.9359 28.7894 16.5361 29.2825 16.5361C29.7756 16.5361 30.1754 16.9359 30.1754 17.429ZM25.7111 17.4287C23.7401 17.4287 22.1396 19.0291 22.1396 21.0001C22.1396 22.9711 23.7401 24.5716 25.7111 24.5716C27.6821 24.5716 29.2825 22.9711 29.2825 21.0001C29.2825 19.0291 27.6821 17.4287 25.7111 17.4287ZM23.9287 21.0006C23.9287 21.9885 24.7306 22.7863 25.7144 22.7863C26.6982 22.7863 27.5001 21.9844 27.5001 21.0006C27.5001 20.0126 26.7024 19.2148 25.7144 19.2148C24.7265 19.2148 23.9287 20.0168 23.9287 21.0006Z" fill="#C4C4C4"/>
<defs>
<filter id="filter0_d_660_3345" x="0" y="0" width="50" height="50" filterUnits="userSpaceOnUse" color-interpolation-filters="sRGB">
<feFlood flood-opacity="0" result="BackgroundImageFix"/>
<feColorMatrix in="SourceAlpha" type="matrix" values="0 0 0 0 0 0 0 0 0 0 0 0 0 0 0 0 0 0 127 0" result="hardAlpha"/>
<feOffset dy="4"/>
<feGaussianBlur stdDeviation="5"/>
<feColorMatrix type="matrix" values="0 0 0 0 0 0 0 0 0 0 0 0 0 0 0 0 0 0 0.05 0"/>
<feBlend mode="normal" in2="BackgroundImageFix" result="effect1_dropShadow_660_3345"/>
<feBlend mode="normal" in="SourceGraphic" in2="effect1_dropShadow_660_3345" result="shape"/>
</filter>
</defs>
</svg>
