<svg width="18" height="16" viewBox="0 0 18 16" fill="none" xmlns="http://www.w3.org/2000/svg">
<path d="M17.9 9.80039C17.8596 9.74449 16.8923 8.41604 15.3273 7.07251C14.4016 6.2778 13.4574 5.64309 12.5211 5.18599C11.3284 4.6038 10.1437 4.30859 9 4.30859C7.85626 4.30859 6.6716 4.6038 5.47893 5.18602C4.54257 5.64312 3.59842 6.27784 2.67272 7.07254C1.1077 8.41607 0.140414 9.74452 0.0999844 9.80042C-0.0333281 9.98485 -0.0333281 10.234 0.0999844 10.4184C0.140414 10.4743 1.1077 11.8027 2.67272 13.1463C3.59842 13.941 4.54257 14.5757 5.47893 15.0328C6.6716 15.6149 7.85626 15.9102 9 15.9102C10.1437 15.9102 11.3284 15.6149 12.5211 15.0327C13.4575 14.5756 14.4016 13.9409 15.3273 13.1462C16.8923 11.8027 17.8596 10.4742 17.9 10.4183C18.0333 10.2339 18.0333 9.98482 17.9 9.80039ZM9 14.8555C6.76153 14.8555 4.70686 13.499 3.37736 12.3611C2.33624 11.47 1.56284 10.568 1.1944 10.1096C2.07851 9.0112 5.2945 5.36328 9 5.36328C11.2385 5.36328 13.2931 6.71971 14.6226 7.85765C15.6637 8.74869 16.437 9.65066 16.8056 10.1092C15.9215 11.2076 12.7055 14.8555 9 14.8555Z" fill="black"/>
<path d="M9 3.25391C9.29123 3.25391 9.52734 3.0178 9.52734 2.72656V0.617188C9.52734 0.325953 9.29123 0.0898438 9 0.0898438C8.70877 0.0898438 8.47266 0.325953 8.47266 0.617188V2.72656C8.47266 3.0178 8.70877 3.25391 9 3.25391Z" fill="black"/>
<path d="M5.17118 3.63147C5.26357 3.81628 5.44979 3.92309 5.64325 3.92309C5.7225 3.92309 5.80297 3.90516 5.87866 3.8673C6.13917 3.73704 6.24474 3.42028 6.11449 3.15978L5.25256 1.43593C5.12231 1.17542 4.80555 1.06981 4.54504 1.2001C4.28453 1.33035 4.17896 1.64711 4.30921 1.90762L5.17118 3.63147Z" fill="black"/>
<path d="M12.1207 3.86753C12.1964 3.90539 12.2769 3.92332 12.3562 3.92332C12.5496 3.92332 12.7358 3.81648 12.8282 3.6317L13.6902 1.90784C13.8204 1.64733 13.7148 1.33057 13.4543 1.20032C13.1938 1.07007 12.8771 1.17568 12.7468 1.43615L11.8849 3.16C11.7546 3.42051 11.8602 3.73727 12.1207 3.86753Z" fill="black"/>
<path d="M2.4369 5.34622C2.53988 5.44919 2.67484 5.50066 2.80977 5.50066C2.9447 5.50066 3.0797 5.44919 3.18264 5.34622C3.38858 5.14027 3.38858 4.80639 3.18264 4.60045L1.99056 3.40837C1.78465 3.20242 1.45074 3.20242 1.24479 3.40837C1.03885 3.61431 1.03885 3.94819 1.24479 4.15414L2.4369 5.34622Z" fill="black"/>
<path d="M15.1905 5.50066C15.3254 5.50066 15.4604 5.44919 15.5633 5.34622L16.7554 4.15414C16.9613 3.94819 16.9613 3.61431 16.7554 3.40837C16.5495 3.20242 16.2156 3.20242 16.0096 3.40837L14.8175 4.60045C14.6116 4.80639 14.6116 5.14027 14.8175 5.34622C14.9205 5.44919 15.0555 5.50066 15.1905 5.50066Z" fill="black"/>
<path d="M9 6.41797C6.96456 6.41797 5.30859 8.07393 5.30859 10.1094C5.30859 12.1448 6.96456 13.8008 9 13.8008C11.0354 13.8008 12.6914 12.1448 12.6914 10.1094C12.6914 8.07393 11.0355 6.41797 9 6.41797ZM9 12.7461C7.54611 12.7461 6.36328 11.5633 6.36328 10.1094C6.36328 8.65549 7.54611 7.47266 9 7.47266C10.4539 7.47266 11.6367 8.65549 11.6367 10.1094C11.6367 11.5633 10.4539 12.7461 9 12.7461Z" fill="black"/>
<path d="M9 8.52734C8.12767 8.52734 7.41797 9.23704 7.41797 10.1094C7.41797 10.9817 8.12767 11.6914 9 11.6914C9.87233 11.6914 10.582 10.9817 10.582 10.1094C10.582 9.23704 9.87237 8.52734 9 8.52734ZM9 10.6367C8.70922 10.6367 8.47266 10.4002 8.47266 10.1094C8.47266 9.8186 8.70922 9.58203 9 9.58203C9.29078 9.58203 9.52734 9.8186 9.52734 10.1094C9.52734 10.4002 9.29081 10.6367 9 10.6367Z" fill="black"/>
</svg>
